# This file uses centimeters as units for non-parametric coordinates.

mtllib Stamme.mtl
g default
v 5.050000 -0.866025 -0.500000
v 5.330331 -0.500000 -0.866025
v 5.050000 0.000000 -1.000000
v 5.050000 0.500000 -0.866025
v 5.050000 0.866025 -0.500000
v 5.050000 1.000000 0.000000
v 5.050000 0.866026 0.500000
v 5.050000 0.500000 0.866025
v 5.050000 0.000000 1.000000
v 5.050000 -0.500000 0.866025
v 5.050000 -0.866025 0.500000
v 5.050000 -1.000000 0.000000
v 5.601089 -0.866025 -0.500000
v 5.753089 -0.500000 -0.672398
v 5.425622 0.154819 -1.000000
v 5.955214 0.500000 -0.866025
v 6.431101 0.866026 -0.500000
v 5.983908 1.000000 -0.190561
v 6.301550 1.000000 0.000000
v 5.955214 0.866026 0.500000
v 5.762582 0.500000 0.634764
v 5.524579 0.289765 0.916044
v 5.524579 0.210235 0.949982
v 5.495490 -0.071685 1.000000
v 6.350000 -0.500000 0.866025
v 6.241228 -0.866025 0.500000
v 5.765284 -1.000000 0.212477
v 5.802449 -1.000000 -0.083711
v 5.385766 -0.448236 -0.776368
v 5.050000 -0.776368 -0.448236
v 5.094856 0.000000 -0.896472
v 4.992139 0.448236 -0.776368
v 4.973200 0.776368 -0.448236
v 5.157052 0.896473 -0.000000
v 4.958333 0.776368 0.448236
v 5.092919 0.448236 0.776368
v 5.131969 -0.001049 0.896191
v 4.994658 -0.448236 0.776368
v 4.984933 -0.776368 0.448236
v 5.149128 -0.896472 0.000000
v 5.753089 -0.429289 -0.601688
v 5.601089 -0.776368 -0.448236
v 5.956574 0.445797 -0.778807
v 5.428200 0.122745 -0.905318
v 6.432343 0.779417 -0.445187
v 5.986273 0.905853 -0.156936
v 5.948596 0.808207 0.418678
v 6.301550 0.903408 -0.025882
v 5.755964 0.442182 0.553443
v 5.524579 0.182406 0.853932
v 5.524579 0.261935 0.819994
v 6.350000 -0.429289 0.795315
v 5.498754 -0.037985 0.905906
v 6.242939 -0.780129 0.444475
v 5.768553 -0.906538 0.177062
v 5.802449 -0.903407 -0.057829
v -3.469571 0.000000 -1.000000
v -3.469571 0.500000 -0.866025
v -4.118896 0.866026 -0.500000
v -3.469571 1.000000 -0.000000
v -3.469571 0.866025 0.500000
v -3.469571 0.500000 0.866026
v -3.469571 0.000000 1.000000
v -3.760264 -0.500000 0.866025
v -3.469571 -0.866025 0.500000
v -3.469571 -1.000000 0.000000
v -3.469571 -0.866025 -0.500000
v -3.469571 -0.500000 -0.866025
v -4.588222 -0.000000 -1.000000
v -4.212159 0.500000 -0.866025
v -4.439032 0.943435 -0.292121
v -4.941808 1.000000 0.000000
v -4.646185 0.866026 0.500000
v -4.429565 0.665031 0.770745
v -4.079948 0.434433 0.866026
v -4.489409 0.000000 1.000000
v -4.236452 -0.390202 0.792251
v -3.915060 -0.901868 0.437919
v -4.247701 -1.000000 0.000000
v -4.775423 -0.866025 -0.500000
v -4.184855 -0.684010 -0.759787
v -3.923671 -0.500000 -0.866025
v -3.525006 0.448236 -0.776368
v -3.469571 0.000000 -0.896472
v -4.163751 0.776368 -0.448236
v -3.411710 0.896472 0.000000
v -3.392771 0.776368 0.448236
v -3.576623 0.448236 0.776368
v -3.377905 0.000000 0.896472
v -3.803183 -0.448236 0.776368
v -3.551540 -0.776649 0.447187
v -3.414229 -0.896472 -0.000000
v -3.404504 -0.776368 -0.448236
v -3.568699 -0.448236 -0.776368
v -4.212159 0.474118 -0.769433
v -4.588222 -0.000000 -0.896472
v -4.943168 0.897365 -0.003332
v -4.441610 0.845401 -0.272557
v -4.647428 0.775252 0.452402
v -4.431930 0.588837 0.706023
v -4.482793 0.041517 0.909267
v -4.079948 0.408551 0.769433
v -4.229834 -0.348684 0.701517
v -4.247701 -0.903407 0.025882
v -3.918325 -0.803530 0.420057
v -4.777134 -0.774991 -0.453375
v -4.188124 -0.606609 -0.696554
v -3.923671 -0.474118 -0.769433
vt 1.706838 0.792981
vt 1.671080 0.807648
vt 1.733016 0.794492
vt 1.706595 0.909386
vt 1.683600 0.873800
vt 1.635322 0.791795
vt 1.671080 0.124067
vt 1.706838 0.064072
vt 1.733210 0.871431
vt 1.733016 0.115028
vt 1.673145 0.898951
vt 1.637680 0.870794
vt 1.609145 0.802532
vt 1.635322 0.125577
vt 1.671346 0.001893
vt 1.692824 0.041905
vt 1.626929 0.855427
vt 1.609145 0.110910
vt 1.634989 0.025486
vt 1.601992 0.799108
vt 1.620441 0.855955
vt 1.614756 0.054422
vt 1.601992 0.119451
vt 1.609593 0.054611
vt -0.121480 0.881489
vt -0.166236 0.881489
vt -0.166237 0.060759
vt -0.121480 0.118882
vt -0.138538 0.965085
vt -0.166237 1.005114
vt -0.199000 0.881489
vt -0.199000 0.118882
vt -0.147629 0.032103
vt -0.121480 -0.012901
vt -0.076724 0.881489
vt -0.076724 0.118882
vt -0.199000 0.962517
vt -0.076724 0.013560
vt -0.076724 0.962517
vt -0.121480 0.993518
vt -0.043960 0.881489
vt -0.043960 0.118882
vt -0.052489 0.046129
vt -0.064661 0.945274
vt 1.132421 0.182542
vt 1.127080 0.176085
vt 1.149828 0.157299
vt 1.158597 0.162068
vt 1.088212 0.202074
vt 1.083365 0.196069
vt 0.998008 0.114008
vt 0.989727 0.120548
vt 0.958478 0.116563
vt 0.960255 0.109110
vt 0.953673 0.108365
vt 0.951893 0.115818
vt 0.917592 0.111182
vt 0.915928 0.103429
vt 0.987337 0.217718
vt 0.981696 0.217719
vt 0.990507 0.149809
vt 0.998013 0.149547
vt 0.948338 0.001893
vt 1.020787 -0.012598
vt 1.021875 -0.007161
vt 0.952467 0.006315
vt 0.939049 0.204801
vt 0.939049 0.123442
vt 0.946288 0.123970
vt 0.947308 0.212114
vt 0.779043 0.193108
vt 0.779043 0.241801
vt 0.771891 0.233261
vt 0.771338 0.193108
vt 0.789731 0.160443
vt 0.782493 0.160971
vt 0.719950 0.272720
vt 0.674623 0.257521
vt 0.676789 0.248759
vt 0.717257 0.263233
vt 0.747384 0.235262
vt 0.754514 0.241801
vt 0.932914 0.123442
vt 0.932914 0.204801
vt 0.924655 0.212114
vt 0.925676 0.123970
vt 1.065484 -0.009714
vt 1.104718 -0.007182
vt 1.098914 -0.002576
vt 1.065139 -0.004370
vt 1.048930 -0.018226
vt 1.048560 -0.012498
vt 1.053175 0.218979
vt 1.051431 0.211476
vt 1.027903 0.220820
vt 1.027846 0.213307
vt 0.953436 0.083555
vt 0.959362 0.088453
vt 0.961150 0.123442
vt 0.953444 0.123442
vt 0.213217 0.198175
vt 0.219704 0.193563
vt 0.230455 0.222763
vt 0.223967 0.227375
vt 0.917307 0.159658
vt 0.908450 0.119342
vt 0.916638 0.119450
vt 0.924711 0.156196
vt 0.932335 0.181955
vt 0.938639 0.177076
vt 0.635296 0.250282
vt 0.637460 0.241519
vt 0.333395 0.193426
vt 0.344083 0.233314
vt 0.336377 0.235379
vt 0.326133 0.197146
vt 1.804532 0.825894
vt 1.768774 0.802686
vt 1.768774 0.119451
vt 1.804532 0.111543
vt 1.758982 0.829279
vt 1.733210 0.871431
vt 1.768774 0.038322
vt 1.806597 0.062881
vt 1.730951 0.016764
vt 1.573302 0.805647
vt 1.594282 0.836968
vt 1.587938 0.836968
vt 1.537628 0.794693
vt 1.573386 0.126763
vt 1.570356 0.834908
vt 1.539139 0.902817
vt 1.537628 0.092836
vt 1.576698 0.038620
vt 1.605979 0.070757
vt 1.545569 0.058800
vt 0.979918 0.006308
vt 0.972765 0.001893
vt 0.974277 0.110017
vt 0.979918 0.110017
vt 1.072625 -0.040175
vt 1.070097 -0.045218
vt 0.704097 0.167864
vt 0.699967 0.160551
vt 0.953443 0.223285
vt 0.961704 0.214746
vt 0.697609 0.239551
vt 0.704097 0.240078
vt 0.710232 0.240078
vt 0.716720 0.239551
vt 0.912962 0.079233
vt 0.920783 0.079438
vt 0.919138 0.053693
vt 0.926290 0.057272
vt 0.918520 0.127857
vt 0.918520 0.209216
vt 0.910814 0.209216
vt 0.910261 0.123442
vt 0.757374 0.206262
vt 0.749529 0.206002
vt 0.765202 0.160443
vt 0.757496 0.160443
vt 0.804126 0.160443
vt 0.804126 0.241801
vt 0.795867 0.246216
vt 0.796420 0.160443
vt 0.377829 0.193426
vt 0.392349 0.240539
vt 0.385087 0.240676
vt 0.371654 0.193687
vt 0.710232 0.167864
vt 0.714362 0.160551
vt 1.902226 0.793917
vt 1.866468 0.807016
vt 1.928403 0.794693
vt 1.901926 0.894276
vt 1.880593 0.856431
vt 1.830709 0.799108
vt 1.866468 0.123866
vt 1.902143 0.112912
vt 1.929915 0.902817
vt 1.928403 0.092836
vt 1.861855 0.859135
vt 1.830709 0.843071
vt 1.830709 0.124641
vt 1.868533 0.057375
vt 1.899978 0.083651
vt 1.818468 0.855197
vt 1.830299 0.015139
vt 1.797380 0.821471
vt 1.812827 0.855197
vt 1.810900 0.062127
vt 1.797380 0.119451
vt 1.805855 0.062388
vt -0.366033 0.881489
vt -0.410789 0.881489
vt -0.410789 0.118882
vt -0.366033 0.118882
vt -0.385052 0.945515
vt -0.410789 0.988118
vt -0.443553 0.881489
vt -0.443553 0.092861
vt -0.405232 0.079005
vt -0.366033 0.049230
vt -0.321276 0.881489
vt -0.321276 0.118882
vt -0.443553 0.997855
vt -0.321276 0.930818
vt -0.358539 0.948842
vt -0.321276 0.001992
vt -0.288513 0.906582
vt -0.288513 0.118882
vt -0.305845 0.944424
vt -0.298022 0.054855
vt 0.484050 0.154163
vt 0.484817 0.144954
vt 0.516360 0.160276
vt 0.518060 0.169690
vt 0.551481 0.145932
vt 0.555421 0.154290
vt 0.582072 0.034757
vt 0.574384 0.039727
vt 0.542978 0.008323
vt 0.549308 0.001994
vt 0.594065 0.060493
vt 0.585699 0.063663
vt -0.243756 0.881489
vt -0.243756 0.118882
vt -0.243756 0.885504
vt -0.283879 0.911544
vt -0.288513 0.078234
vt -0.243756 0.018749
vt -0.199000 0.052411
vt -0.199000 0.962517
vt -0.229898 0.915111
vt -0.488309 0.881489
vt -0.533065 0.881489
vt -0.533065 0.118882
vt -0.488309 0.118882
vt -0.507127 0.923969
vt -0.514246 0.923969
vt -0.527196 0.064246
vt -0.488309 0.027594
vt -0.443553 0.997855
vt -0.481892 0.921366
vt -0.453381 0.050237
vt 0.620532 0.123595
vt 0.607731 0.118681
vt 1.609145 0.802532
vt 1.609145 0.110910
vn -0.001456 0.851478 0.524388
vn -0.057624 0.865226 0.498059
vn -0.155523 0.645609 0.747664
vn -0.007462 0.499476 0.866295
vn 0.001003 0.052892 0.998600
vn 0.038201 -0.323399 0.945491
vn 0.003815 -0.675355 0.737483
vn 0.000917 -0.497482 0.867474
vn 0.010491 -0.816827 0.576787
vn 0.000907 -0.873570 0.486698
vn 0.027053 -0.944993 0.325970
vn 0.002972 -0.999938 0.010736
vn 0.011776 -0.973698 -0.227538
vn 0.011776 -0.973698 -0.227538
vn -0.003099 -0.868113 -0.496357
vn -0.118371 -0.544033 -0.830673
vn -0.118371 -0.544033 -0.830673
vn -0.005551 -0.471293 -0.881959
vn 0.000629 -0.279160 -0.960244
vn 0.000629 -0.279160 -0.960244
vn 0.001078 -0.004743 -0.999988
vn 0.018898 0.279857 -0.959856
vn 0.018898 0.279857 -0.959856
vn 0.000621 0.490389 -0.871503
vn 0.000000 0.707107 -0.707107
vn 0.005717 0.750377 -0.660985
vn 0.001100 0.870247 -0.492614
vn 0.038328 0.939553 -0.340253
vn 0.002777 0.999980 0.005640
vn 0.018805 0.960853 0.276421
vn 0.006373 -0.506600 -0.862158
vn 0.001788 -0.848073 -0.529876
vn 0.001499 -0.868895 -0.494994
vn 0.001252 -0.500557 -0.865703
vn -0.000776 -0.031534 -0.999502
vn -0.000000 0.000058 -1.000000
vn -0.001090 0.513220 -0.858256
vn -0.000000 0.543506 -0.839405
vn -0.001292 0.862774 -0.505588
vn 0.001528 0.880409 -0.474214
vn -0.001164 0.999993 -0.003632
vn 0.000193 0.998835 -0.048258
vn 0.004516 0.865149 0.501494
vn 0.001327 0.870684 0.491842
vn 0.004078 0.499054 0.866561
vn 0.000771 0.503694 0.863882
vn -0.000479 -0.010605 0.999944
vn -0.002054 -0.035264 0.999376
vn -0.000496 -0.506536 0.862218
vn -0.004965 -0.490480 0.871438
vn -0.001485 -0.859593 0.510977
vn 0.000422 -0.849818 0.527076
vn -0.001863 -0.999995 0.002606
vn 0.000515 -0.999970 -0.007678
vn 0.149574 -0.641638 -0.752282
vn 0.054961 -0.864974 -0.498798
vn -0.004174 0.673256 -0.739398
vn -0.039188 0.324205 -0.945175
vn -0.010623 0.818081 -0.575005
vn -0.026962 0.944453 -0.327539
vn 0.000000 0.965926 0.258819
vn 0.000000 0.965926 0.258819
vn 0.119191 0.539036 0.833807
vn 0.119191 0.539036 0.833807
vn -0.000001 0.278294 0.960496
vn -0.000001 0.278294 0.960496
vn -0.011800 -0.287311 0.957765
vn -0.011800 -0.287311 0.957765
vn -0.006206 -0.753910 0.656949
vn 0.000000 -0.707107 0.707107
vn -0.038168 -0.938753 0.342471
vn -0.017790 -0.960698 -0.277026
vn 0.282175 0.712902 -0.641988
vn 0.282175 0.712902 -0.641988
vn 0.282175 0.712902 -0.641988
vn 0.282175 0.712902 -0.641988
vn 0.915501 -0.244182 0.319738
vn 0.915501 -0.244182 0.319738
vn 0.915501 -0.244182 0.319738
vn 0.915501 -0.244182 0.319738
vn 0.649498 -0.622879 -0.436090
vn 0.653755 -0.615973 -0.439524
vn 0.484780 -0.815308 -0.316642
vn 0.488300 -0.812317 -0.318912
vn 0.352196 -0.906959 -0.231048
vn 0.352196 -0.906959 -0.231048
vn 0.720722 -0.485645 -0.494681
vn 0.720722 -0.485645 -0.494681
vn 0.185185 0.263542 0.946706
vn 0.185185 0.263542 0.946706
vn 0.346858 0.309982 0.885212
vn 0.345304 0.309569 0.885964
vn 0.588908 0.364645 0.721264
vn 0.588908 0.364645 0.721264
vn 0.022846 -0.678131 0.734586
vn 0.022846 -0.678131 0.734586
vn 0.022846 -0.678131 0.734586
vn 0.022846 -0.678131 0.734586
vn 0.786311 -0.374734 0.491212
vn 0.786311 -0.374734 0.491212
vn 0.786311 -0.374734 0.491212
vn 0.786311 -0.374734 0.491212
vn -0.011074 0.122427 -0.992416
vn -0.011074 0.122427 -0.992416
vn -0.011074 0.122427 -0.992416
vn -0.011074 0.122427 -0.992416
vn 0.180540 -0.810229 0.557615
vn 0.180540 -0.810229 0.557615
vn 0.495478 -0.727631 0.474400
vn 0.513880 -0.719484 0.467194
vn 0.895074 -0.394586 0.207711
vn 0.895074 -0.394586 0.207711
vn -0.022846 0.678131 -0.734586
vn -0.022846 0.678131 -0.734586
vn -0.022846 0.678131 -0.734586
vn -0.022846 0.678131 -0.734586
vn 0.420773 -0.857358 0.296458
vn 0.420773 -0.857358 0.296458
vn 0.420773 -0.857358 0.296458
vn 0.420773 -0.857358 0.296458
vn 1.000000 -0.000000 0.000003
vn 1.000000 -0.000000 0.000003
vn 1.000000 -0.000000 0.000003
vn 1.000000 -0.000000 0.000003
vn 0.409032 0.869149 -0.277981
vn 0.409032 0.869149 -0.277981
vn 0.409032 0.869149 -0.277981
vn 0.409032 0.869149 -0.277981
vn 0.010005 -0.793033 -0.609097
vn 0.010005 -0.793033 -0.609097
vn 0.010005 -0.793033 -0.609097
vn 0.010005 -0.793033 -0.609097
vn 0.433842 0.757190 0.488307
vn 0.433842 0.757190 0.488307
vn 0.345465 0.843224 0.411859
vn 0.346993 0.841939 0.413200
vn 0.126940 0.968452 0.214447
vn 0.126940 0.968452 0.214447
vn 0.977983 -0.137335 -0.157124
vn 0.977983 -0.137335 -0.157124
vn 0.977983 -0.137335 -0.157124
vn 0.977983 -0.137335 -0.157124
vn -0.010005 0.793033 0.609097
vn -0.010005 0.793033 0.609097
vn -0.010005 0.793033 0.609097
vn -0.010005 0.793033 0.609097
vn 0.264952 -0.302340 -0.915637
vn 0.264952 -0.302340 -0.915637
vn 0.392091 -0.346680 -0.852102
vn 0.392617 -0.346853 -0.851789
vn 0.541632 -0.392065 -0.743586
vn 0.541632 -0.392065 -0.743586
vn 0.902723 0.165545 -0.397097
vn 0.902723 0.165545 -0.397097
vn 0.902723 0.165545 -0.397097
vn 0.902723 0.165545 -0.397097
vn 0.097775 -0.175136 0.979677
vn 0.097775 -0.175136 0.979677
vn 0.097775 -0.175136 0.979677
vn 0.097775 -0.175136 0.979677
vn 0.793037 0.342818 -0.503555
vn 0.793037 0.342818 -0.503555
vn 0.793037 0.342818 -0.503555
vn 0.793037 0.342818 -0.503555
vn 0.000000 -0.551370 0.834261
vn -0.000000 0.007091 0.999975
vn -0.001914 -0.876506 0.481387
vn -0.000163 -0.998424 0.056113
vn -0.000935 -0.859574 -0.511011
vn -0.002269 -0.508645 -0.860974
vn 0.001137 0.020524 -0.999789
vn 0.006427 0.514913 -0.857219
vn -0.000910 0.838398 -0.545059
vn -0.000623 0.999919 -0.012690
vn -0.001094 0.858050 0.513565
vn -0.001909 0.491497 0.870877
vn -0.000000 -0.258819 0.965926
vn -0.000000 -0.073326 0.997308
vn -0.003165 -0.987375 -0.158370
vn -0.014853 -0.971129 0.238091
vn -0.006543 -0.934811 -0.355086
vn -0.028805 -0.749515 -0.661360
vn -0.003817 -0.302901 -0.953015
vn -0.003817 -0.302901 -0.953015
vn 0.070145 0.350743 -0.933841
vn 0.070145 0.350743 -0.933841
vn -0.027036 0.968695 -0.246779
vn -0.027036 0.968695 -0.246779
vn -0.011083 0.925038 0.379714
vn -0.000000 0.965926 0.258819
vn -0.036504 0.767566 0.639930
vn -0.000000 0.258819 0.965926
vn -0.000000 0.068237 -0.997669
vn -0.000000 0.258819 -0.965926
vn 0.014543 0.971549 -0.236391
vn 0.003218 0.987940 0.154804
vn 0.006926 0.932664 0.360681
vn 0.028632 0.751337 0.659297
vn -0.011269 0.280184 0.959880
vn -0.011269 0.280184 0.959880
vn -0.072008 -0.354783 0.932172
vn -0.072008 -0.354783 0.932172
vn 0.016565 -0.971939 0.234651
vn 0.016565 -0.971939 0.234651
vn -0.000000 -0.965926 -0.258819
vn 0.011715 -0.922257 -0.386400
vn 0.036401 -0.768581 -0.638716
vn -0.000000 -0.258819 -0.965926
vn 0.018559 0.920871 0.389425
vn 0.018559 0.920871 0.389425
vn 0.018559 0.920871 0.389425
vn 0.018559 0.920871 0.389425
vn -0.799054 0.596293 0.077120
vn -0.799054 0.596293 0.077120
vn -0.799054 0.596293 0.077120
vn -0.799054 0.596293 0.077120
vn -0.946665 -0.126242 -0.296459
vn -0.519380 -0.101085 -0.848544
vn -0.520400 -0.102630 -0.847733
vn -0.962235 -0.128750 -0.239850
vn -0.560918 -0.166432 -0.810969
vn -0.560918 -0.166432 -0.810969
vn -0.858297 -0.119842 0.498963
vn -0.858297 -0.119842 0.498963
vn -0.180192 -0.690771 0.700262
vn -0.396051 -0.618411 0.678757
vn -0.401018 -0.616260 0.677797
vn -0.180192 -0.690771 0.700262
vn -0.832889 -0.296408 0.467374
vn -0.832889 -0.296408 0.467374
vn -0.020380 -0.975555 -0.218807
vn -0.020380 -0.975555 -0.218807
vn -0.020380 -0.975555 -0.218807
vn -0.020380 -0.975555 -0.218807
vn -0.695851 0.717318 0.035296
vn -0.695851 0.717318 0.035296
vn -0.695851 0.717318 0.035296
vn -0.695851 0.717318 0.035296
vn -0.086357 0.936212 -0.340660
vn -0.086357 0.936212 -0.340660
vn -0.086357 0.936212 -0.340660
vn -0.086357 0.936212 -0.340660
vn -0.135229 -0.890947 -0.433504
vn -0.577744 -0.721871 -0.380938
vn -0.600551 -0.706235 -0.374927
vn -0.135229 -0.890947 -0.433504
vn -0.867611 -0.425180 -0.257823
vn -0.867611 -0.425180 -0.257823
vn 0.020380 0.975555 0.218807
vn 0.020380 0.975555 0.218807
vn 0.020380 0.975555 0.218807
vn 0.020380 0.975555 0.218807
vn -0.016487 0.132729 -0.991015
vn -0.016487 0.132729 -0.991015
vn -0.016487 0.132729 -0.991015
vn -0.016487 0.132729 -0.991015
vn -0.777429 -0.038846 0.627770
vn -0.534174 0.119872 0.836833
vn -0.524042 0.125353 0.842417
vn -0.777429 -0.038846 0.627770
vn -0.126941 0.298510 0.945927
vn -0.126941 0.298510 0.945927
vn -0.689757 -0.266455 0.673229
vn -0.689757 -0.266455 0.673229
vn -0.689757 -0.266455 0.673229
vn -0.689757 -0.266455 0.673229
vn 0.016487 -0.132729 0.991015
vn 0.016487 -0.132729 0.991015
vn 0.016487 -0.132729 0.991015
vn 0.016487 -0.132729 0.991015
vn -0.264951 0.641796 -0.719651
vn -0.362419 0.566246 -0.740283
vn -0.361754 0.566808 -0.740178
vn -0.264951 0.641796 -0.719651
vn -0.460778 0.475251 -0.749547
vn -0.460778 0.475251 -0.749547
vn -0.601048 -0.792611 0.102511
vn -0.601048 -0.792611 0.102511
vn -0.601048 -0.792611 0.102511
vn -0.601048 -0.792611 0.102511
vn 0.032733 -0.916203 0.399376
vn 0.032733 -0.916203 0.399376
vn 0.032733 -0.916203 0.399376
vn 0.032733 -0.916203 0.399376
vn -0.579961 -0.332443 -0.743725
vn -0.579961 -0.332443 -0.743725
vn -0.579961 -0.332443 -0.743725
vn -0.579961 -0.332443 -0.743725
vn -0.767859 -0.639390 0.039670
vn -0.767859 -0.639390 0.039670
vn -0.767859 -0.639390 0.039670
vn -0.767859 -0.639390 0.039670
s 1
g pCylinder1
usemtl initialShadingGroup
f 30/178/1 42/184/2 41/188/3 29/117/4
f 31/118/5 44/121/6 43/122/7 32/3/8
f 32/3/8 43/9/7 45/4/9 33/1/10
f 33/1/10 45/4/9 46/5/11 34/2/12
f 34/2/12 48/11/13 47/12/14 35/6/15
f 35/6/15 47/12/16 49/17/17 36/249/18
f 36/13/18 51/127/19 50/128/20 37/126/21
f 37/126/21 53/131/22 52/132/23 38/129/24
f 38/175/24 52/181/25 54/176/26 39/173/27
f 39/173/27 54/176/26 55/177/28 40/174/29
f 40/174/29 56/183/30 42/184/2 30/178/1
s 8
f 2/211/31 1/205/32 67/206/33 68/212/34
f 3/227/35 2/211/31 68/212/34 57/228/36
f 4/31/37 3/227/35 57/228/36 58/32/38
f 5/26/39 4/31/37 58/32/38 59/27/40
f 6/25/41 5/26/39 59/27/40 60/28/42
f 7/35/43 6/25/41 60/28/42 61/36/44
f 8/41/45 7/35/43 61/36/44 62/42/46
f 9/236/47 8/237/45 62/238/46 63/239/48
f 10/201/49 9/236/47 63/239/48 64/202/50
f 11/196/51 10/201/49 64/202/50 65/197/52
f 12/195/53 11/196/51 65/197/52 66/198/54
f 1/205/32 12/195/53 66/198/54 67/206/33
f 1/205/32 2/211/31 14/213/55 13/208/56
f 3/227/35 4/31/37 16/234/57 15/235/58
f 4/31/37 5/26/39 17/30/59 16/37/57
f 5/26/39 6/25/41 18/29/60 17/30/59
f 6/25/41 7/35/43 20/39/61 19/40/62
f 7/35/43 8/41/45 21/44/63 20/39/64
f 8/237/45 9/236/47 23/240/65 22/241/66
f 9/236/47 10/201/49 25/244/67 24/245/68
f 10/201/49 11/196/51 26/200/69 25/207/70
f 11/196/51 12/195/53 27/199/71 26/200/69
f 12/195/53 1/205/32 13/208/56 28/209/72
s off
f 2/190/73 29/117/74 41/188/75 14/191/76
f 14/215/77 41/216/78 42/217/79 13/218/80
s 9
f 16/49/81 43/50/82 44/46/83 15/45/84
f 15/45/84 44/46/83 31/47/85 3/48/86
f 17/93/87 45/94/88 43/50/82 16/49/81
s 10
f 6/145/89 34/146/90 46/96/91 18/95/92
f 18/95/92 46/96/91 45/94/93 17/93/94
s off
f 7/171/95 35/172/96 47/150/97 20/149/98
f 20/97/99 47/98/100 48/99/101 19/100/102
f 19/100/103 48/99/104 34/146/105 6/145/106
s 11
f 8/20/107 36/249/108 49/17/109 21/21/110
f 21/101/110 49/102/109 47/103/111 20/104/112
s off
f 20/148/113 47/147/114 35/144/115 7/143/116
f 9/51/117 37/52/118 50/53/119 23/54/120
f 23/54/121 50/53/122 51/56/123 22/55/124
f 22/55/125 51/56/126 36/57/127 8/58/128
f 10/137/129 38/138/130 52/142/131 25/141/132
s 12
f 25/59/133 52/60/134 53/61/135 24/62/136
f 24/62/136 53/61/135 37/52/137 9/51/138
s off
f 26/221/139 54/222/140 52/223/141 25/224/142
f 25/140/143 52/139/144 38/138/145 10/137/146
s 13
f 12/247/147 40/248/148 55/226/149 27/225/150
f 27/225/150 55/226/149 54/222/151 26/221/152
s off
f 13/218/153 42/217/154 56/219/155 28/220/156
f 28/220/157 56/219/158 40/248/159 12/247/160
f 2/211/161 3/227/162 31/229/163 29/230/164
s 1
f 32/3/8 83/10/165 84/119/166 31/118/5
f 33/1/10 85/8/167 83/10/165 32/3/8
f 34/2/12 86/7/168 85/8/167 33/1/10
f 35/6/15 87/14/169 86/7/168 34/2/12
f 36/249/18 88/250/170 87/14/169 35/6/15
f 37/126/21 89/130/171 88/18/170 36/13/18
f 38/129/24 90/133/172 89/130/171 37/126/21
f 39/173/27 91/180/173 90/182/172 38/175/24
f 40/174/29 92/179/174 91/180/173 39/173/27
f 30/178/1 93/185/175 92/179/174 40/174/29
f 29/117/4 94/120/176 93/185/175 30/178/1
f 31/118/5 84/119/166 94/120/176 29/117/4
f 84/119/166 83/10/165 95/125/177 96/123/178
f 85/8/167 86/7/168 97/15/179 98/16/180
f 86/7/168 87/14/169 99/19/181 97/15/179
f 87/14/169 88/250/170 100/22/182 99/19/181
f 88/18/170 89/130/171 101/134/183 102/135/184
f 89/130/171 90/133/172 103/136/185 101/134/186
f 91/180/173 92/179/174 104/186/187 105/187/188
f 92/179/174 93/185/175 106/189/189 104/186/190
f 93/185/175 94/120/176 107/192/191 106/189/189
f 94/120/176 84/119/166 96/123/178 108/124/192
s 8
f 57/228/36 69/232/193 70/233/194 58/32/38
f 59/27/40 71/33/195 72/34/196 60/28/42
f 60/28/42 72/34/196 73/38/197 61/36/44
f 61/36/44 73/38/197 74/43/198 62/42/46
f 62/238/46 75/242/199 76/243/200 63/239/48
f 63/239/48 76/243/201 77/246/202 64/202/50
f 65/197/52 78/203/203 79/204/204 66/198/54
f 66/198/54 79/204/205 80/210/206 67/206/33
f 67/206/33 80/210/206 81/214/207 68/212/34
f 68/212/34 82/231/208 69/232/193 57/228/36
s off
f 58/63/209 70/64/210 95/65/211 83/66/212
f 70/64/213 69/91/214 96/92/215 95/65/216
s 14
f 72/106/217 71/151/218 98/152/219 97/107/220
f 71/151/218 59/153/221 85/154/222 98/152/219
f 73/105/223 72/106/217 97/107/220 99/108/224
s 15
f 62/23/225 74/24/226 100/22/227 88/250/228
f 74/109/226 73/105/229 99/108/230 100/110/227
s off
f 63/67/231 76/68/232 101/69/233 89/70/234
f 76/75/235 75/71/236 102/74/237 101/76/238
f 75/71/239 62/72/240 88/73/241 102/74/242
s 16
f 64/77/243 77/78/244 103/79/245 90/80/246
f 77/78/244 76/111/247 101/112/248 103/79/245
s off
f 76/83/249 63/84/250 89/85/251 101/86/252
f 66/155/253 79/156/254 104/157/255 92/158/256
s 17
f 79/161/257 78/159/258 105/160/259 104/162/260
f 78/159/258 65/82/261 91/81/262 105/160/259
s off
f 80/113/263 79/114/264 104/115/265 106/116/266
f 79/163/267 66/164/268 92/165/269 104/166/270
s 18
f 68/193/271 81/194/272 107/192/273 94/120/274
f 81/167/272 80/168/275 106/169/276 107/170/273
s off
f 69/91/277 82/87/278 108/90/279 96/92/280
f 82/87/281 68/88/282 94/89/283 108/90/284
f 58/63/285 83/66/286 85/154/287 59/153/288
f 90/80/289 91/81/290 65/82/291 64/77/292
